<svg xmlns="http://www.w3.org/2000/svg" xmlns:xlink="http://www.w3.org/1999/xlink" width="200" zoomAndPan="magnify" viewBox="0 0 150 30.000001" height="40" preserveAspectRatio="xMidYMid meet" version="1.0"><defs><g/><clipPath id="2f130c886c"><path d="M 134 7 L 147.578125 7 L 147.578125 24 L 134 24 Z M 134 7 " clip-rule="nonzero"/></clipPath><clipPath id="494ac7db6c"><path d="M 2.417969 0 L 46.722656 0 L 46.722656 28.289062 L 2.417969 28.289062 Z M 2.417969 0 " clip-rule="nonzero"/></clipPath></defs><g fill="#000000" fill-opacity="1"><g transform="translate(48.359899, 23.060413)"><g><path d="M 9.421875 -16.203125 C 10.410156 -16.203125 11.316406 -16.09375 12.140625 -15.875 C 12.972656 -15.65625 13.640625 -15.359375 14.140625 -14.984375 C 14.648438 -14.617188 14.90625 -14.21875 14.90625 -13.78125 C 14.90625 -13.582031 14.832031 -13.382812 14.6875 -13.1875 C 14.539062 -12.988281 14.34375 -12.890625 14.09375 -12.890625 C 13.84375 -12.890625 13.640625 -12.953125 13.484375 -13.078125 C 13.335938 -13.203125 13.1875 -13.34375 13.03125 -13.5 C 12.875 -13.664062 12.648438 -13.820312 12.359375 -13.96875 C 12.085938 -14.09375 11.703125 -14.207031 11.203125 -14.3125 C 10.710938 -14.414062 10.148438 -14.46875 9.515625 -14.46875 C 8.359375 -14.46875 7.3125 -14.175781 6.375 -13.59375 C 5.445312 -13.019531 4.710938 -12.242188 4.171875 -11.265625 C 3.640625 -10.285156 3.375 -9.1875 3.375 -7.96875 C 3.375 -6.726562 3.628906 -5.609375 4.140625 -4.609375 C 4.660156 -3.617188 5.375 -2.835938 6.28125 -2.265625 C 7.195312 -1.703125 8.265625 -1.421875 9.484375 -1.421875 C 10.304688 -1.421875 10.941406 -1.492188 11.390625 -1.640625 C 11.847656 -1.785156 12.242188 -1.953125 12.578125 -2.140625 C 12.972656 -2.367188 13.253906 -2.585938 13.421875 -2.796875 C 13.597656 -3.015625 13.832031 -3.125 14.125 -3.125 C 14.394531 -3.125 14.597656 -3.046875 14.734375 -2.890625 C 14.867188 -2.742188 14.9375 -2.546875 14.9375 -2.296875 C 14.9375 -1.960938 14.691406 -1.59375 14.203125 -1.1875 C 13.722656 -0.789062 13.054688 -0.441406 12.203125 -0.140625 C 11.359375 0.160156 10.390625 0.3125 9.296875 0.3125 C 7.742188 0.3125 6.382812 -0.046875 5.21875 -0.765625 C 4.050781 -1.492188 3.140625 -2.484375 2.484375 -3.734375 C 1.835938 -4.984375 1.515625 -6.394531 1.515625 -7.96875 C 1.515625 -9.46875 1.84375 -10.835938 2.5 -12.078125 C 3.164062 -13.316406 4.09375 -14.3125 5.28125 -15.0625 C 6.46875 -15.820312 7.847656 -16.203125 9.421875 -16.203125 Z M 9.421875 -16.203125 "/></g></g></g><g fill="#000000" fill-opacity="1"><g transform="translate(64.409778, 23.060413)"><g><path d="M 17.203125 -7.9375 C 17.203125 -6.363281 16.859375 -4.953125 16.171875 -3.703125 C 15.492188 -2.453125 14.566406 -1.46875 13.390625 -0.75 C 12.210938 -0.0390625 10.867188 0.3125 9.359375 0.3125 C 7.890625 0.3125 6.5625 -0.0390625 5.375 -0.75 C 4.1875 -1.46875 3.242188 -2.453125 2.546875 -3.703125 C 1.859375 -4.953125 1.515625 -6.363281 1.515625 -7.9375 C 1.515625 -9.519531 1.859375 -10.929688 2.546875 -12.171875 C 3.242188 -13.410156 4.1875 -14.390625 5.375 -15.109375 C 6.5625 -15.835938 7.890625 -16.203125 9.359375 -16.203125 C 10.867188 -16.203125 12.210938 -15.835938 13.390625 -15.109375 C 14.566406 -14.390625 15.492188 -13.410156 16.171875 -12.171875 C 16.859375 -10.929688 17.203125 -9.519531 17.203125 -7.9375 Z M 15.34375 -7.9375 C 15.34375 -9.195312 15.082031 -10.316406 14.5625 -11.296875 C 14.039062 -12.273438 13.332031 -13.046875 12.4375 -13.609375 C 11.539062 -14.179688 10.515625 -14.46875 9.359375 -14.46875 C 8.242188 -14.46875 7.226562 -14.179688 6.3125 -13.609375 C 5.40625 -13.046875 4.6875 -12.273438 4.15625 -11.296875 C 3.632812 -10.316406 3.375 -9.195312 3.375 -7.9375 C 3.375 -6.675781 3.632812 -5.554688 4.15625 -4.578125 C 4.6875 -3.609375 5.40625 -2.835938 6.3125 -2.265625 C 7.226562 -1.703125 8.242188 -1.421875 9.359375 -1.421875 C 10.515625 -1.421875 11.539062 -1.703125 12.4375 -2.265625 C 13.332031 -2.835938 14.039062 -3.609375 14.5625 -4.578125 C 15.082031 -5.554688 15.34375 -6.675781 15.34375 -7.9375 Z M 15.34375 -7.9375 "/></g></g></g><g fill="#000000" fill-opacity="1"><g transform="translate(83.12431, 23.060413)"><g><path d="M 9.921875 -16.203125 C 11.273438 -16.203125 12.359375 -15.925781 13.171875 -15.375 C 13.992188 -14.832031 14.585938 -14.09375 14.953125 -13.15625 C 15.316406 -12.21875 15.5 -11.175781 15.5 -10.03125 L 15.5 -0.921875 C 15.5 -0.679688 15.40625 -0.46875 15.21875 -0.28125 C 15.03125 -0.09375 14.8125 0 14.5625 0 C 14.269531 0 14.039062 -0.09375 13.875 -0.28125 C 13.71875 -0.46875 13.640625 -0.679688 13.640625 -0.921875 L 13.640625 -9.953125 C 13.640625 -10.773438 13.503906 -11.523438 13.234375 -12.203125 C 12.960938 -12.890625 12.519531 -13.4375 11.90625 -13.84375 C 11.300781 -14.257812 10.503906 -14.46875 9.515625 -14.46875 C 8.628906 -14.46875 7.785156 -14.257812 6.984375 -13.84375 C 6.191406 -13.4375 5.546875 -12.890625 5.046875 -12.203125 C 4.554688 -11.523438 4.3125 -10.773438 4.3125 -9.953125 L 4.3125 -0.921875 C 4.3125 -0.679688 4.21875 -0.46875 4.03125 -0.28125 C 3.84375 -0.09375 3.625 0 3.375 0 C 3.082031 0 2.851562 -0.09375 2.6875 -0.28125 C 2.53125 -0.46875 2.453125 -0.679688 2.453125 -0.921875 L 2.453125 -14.8125 C 2.453125 -15.0625 2.535156 -15.273438 2.703125 -15.453125 C 2.878906 -15.640625 3.101562 -15.734375 3.375 -15.734375 C 3.644531 -15.734375 3.867188 -15.640625 4.046875 -15.453125 C 4.222656 -15.273438 4.3125 -15.0625 4.3125 -14.8125 L 4.3125 -12.203125 L 3.59375 -11.09375 C 3.632812 -11.75 3.84375 -12.378906 4.21875 -12.984375 C 4.601562 -13.597656 5.09375 -14.148438 5.6875 -14.640625 C 6.289062 -15.128906 6.957031 -15.507812 7.6875 -15.78125 C 8.425781 -16.0625 9.171875 -16.203125 9.921875 -16.203125 Z M 9.921875 -16.203125 "/></g></g></g><g fill="#000000" fill-opacity="1"><g transform="translate(101.033255, 23.060413)"><g><path d="M 12.359375 -1.734375 C 12.609375 -1.734375 12.820312 -1.644531 13 -1.46875 C 13.175781 -1.289062 13.265625 -1.09375 13.265625 -0.875 C 13.265625 -0.625 13.175781 -0.414062 13 -0.25 C 12.820312 -0.0820312 12.609375 0 12.359375 0 L 2.296875 0 C 2.023438 0 1.804688 -0.101562 1.640625 -0.3125 C 1.472656 -0.519531 1.390625 -0.71875 1.390625 -0.90625 C 1.390625 -1.019531 1.410156 -1.132812 1.453125 -1.25 C 1.492188 -1.363281 1.566406 -1.484375 1.671875 -1.609375 L 11.0625 -14.59375 L 11.1875 -14.3125 L 3.0625 -14.3125 C 2.820312 -14.3125 2.613281 -14.398438 2.4375 -14.578125 C 2.257812 -14.753906 2.171875 -14.957031 2.171875 -15.1875 C 2.171875 -15.425781 2.257812 -15.628906 2.4375 -15.796875 C 2.613281 -15.960938 2.820312 -16.046875 3.0625 -16.046875 L 12.578125 -16.046875 C 12.804688 -16.046875 13.007812 -15.953125 13.1875 -15.765625 C 13.363281 -15.585938 13.453125 -15.375 13.453125 -15.125 C 13.453125 -15 13.429688 -14.882812 13.390625 -14.78125 C 13.347656 -14.675781 13.285156 -14.5625 13.203125 -14.4375 L 3.875 -1.578125 L 3.5 -1.734375 Z M 12.359375 -1.734375 "/></g></g></g><g fill="#000000" fill-opacity="1"><g transform="translate(115.874753, 23.060413)"><g><path d="M 9.609375 0.3125 C 8.015625 0.3125 6.609375 -0.0234375 5.390625 -0.703125 C 4.171875 -1.390625 3.21875 -2.34375 2.53125 -3.5625 C 1.851562 -4.78125 1.515625 -6.207031 1.515625 -7.84375 C 1.515625 -9.59375 1.859375 -11.085938 2.546875 -12.328125 C 3.242188 -13.566406 4.144531 -14.519531 5.25 -15.1875 C 6.351562 -15.863281 7.523438 -16.203125 8.765625 -16.203125 C 9.671875 -16.203125 10.550781 -16.039062 11.40625 -15.71875 C 12.269531 -15.40625 13.035156 -14.929688 13.703125 -14.296875 C 14.378906 -13.671875 14.914062 -12.898438 15.3125 -11.984375 C 15.71875 -11.078125 15.941406 -10.023438 15.984375 -8.828125 C 15.960938 -8.578125 15.859375 -8.363281 15.671875 -8.1875 C 15.492188 -8.019531 15.28125 -7.9375 15.03125 -7.9375 L 2.609375 -7.9375 L 2.234375 -9.609375 L 14.4375 -9.609375 L 14.03125 -9.234375 L 14.03125 -9.859375 C 13.945312 -10.828125 13.632812 -11.648438 13.09375 -12.328125 C 12.5625 -13.015625 11.914062 -13.53125 11.15625 -13.875 C 10.394531 -14.226562 9.597656 -14.40625 8.765625 -14.40625 C 8.148438 -14.40625 7.515625 -14.28125 6.859375 -14.03125 C 6.210938 -13.789062 5.625 -13.40625 5.09375 -12.875 C 4.570312 -12.34375 4.144531 -11.671875 3.8125 -10.859375 C 3.476562 -10.046875 3.3125 -9.082031 3.3125 -7.96875 C 3.3125 -6.75 3.554688 -5.640625 4.046875 -4.640625 C 4.546875 -3.648438 5.265625 -2.863281 6.203125 -2.28125 C 7.148438 -1.707031 8.273438 -1.421875 9.578125 -1.421875 C 10.296875 -1.421875 10.941406 -1.523438 11.515625 -1.734375 C 12.097656 -1.941406 12.601562 -2.210938 13.03125 -2.546875 C 13.46875 -2.890625 13.832031 -3.25 14.125 -3.625 C 14.351562 -3.8125 14.582031 -3.90625 14.8125 -3.90625 C 15.019531 -3.90625 15.195312 -3.820312 15.34375 -3.65625 C 15.5 -3.488281 15.578125 -3.300781 15.578125 -3.09375 C 15.578125 -2.851562 15.476562 -2.640625 15.28125 -2.453125 C 14.65625 -1.703125 13.847656 -1.050781 12.859375 -0.5 C 11.867188 0.0390625 10.785156 0.3125 9.609375 0.3125 Z M 9.609375 0.3125 "/></g></g></g><g clip-path="url(#2f130c886c)"><g fill="#000000" fill-opacity="1"><g transform="translate(133.380904, 23.060413)"><g><path d="M 2.015625 -15.984375 C 2.328125 -15.984375 2.570312 -15.847656 2.75 -15.578125 L 13.71875 -1.390625 C 13.863281 -1.222656 13.9375 -1.039062 13.9375 -0.84375 C 13.9375 -0.59375 13.84375 -0.375 13.65625 -0.1875 C 13.476562 0 13.265625 0.09375 13.015625 0.09375 C 12.722656 0.09375 12.460938 -0.0390625 12.234375 -0.3125 L 1.234375 -14.5 C 1.109375 -14.644531 1.046875 -14.832031 1.046875 -15.0625 C 1.046875 -15.332031 1.144531 -15.550781 1.34375 -15.71875 C 1.539062 -15.894531 1.765625 -15.984375 2.015625 -15.984375 Z M 2.015625 0.09375 C 1.804688 0.09375 1.601562 0.0195312 1.40625 -0.125 C 1.207031 -0.269531 1.109375 -0.476562 1.109375 -0.75 C 1.109375 -0.96875 1.179688 -1.160156 1.328125 -1.328125 L 6.5625 -8.0625 L 7.59375 -6.5625 L 2.75 -0.28125 C 2.570312 -0.03125 2.328125 0.09375 2.015625 0.09375 Z M 13.015625 -15.984375 C 13.285156 -15.984375 13.492188 -15.90625 13.640625 -15.75 C 13.796875 -15.59375 13.875 -15.40625 13.875 -15.1875 C 13.875 -15.082031 13.859375 -14.976562 13.828125 -14.875 C 13.796875 -14.769531 13.742188 -14.675781 13.671875 -14.59375 L 8.421875 -7.71875 L 7.46875 -9.203125 L 12.234375 -15.578125 C 12.460938 -15.847656 12.722656 -15.984375 13.015625 -15.984375 Z M 13.015625 -15.984375 "/></g></g></g></g><g clip-path="url(#494ac7db6c)"><path fill="#56aeff" d="M 38.253906 16.4375 C 37.890625 17.375 38.355469 18.414062 39.277344 18.777344 C 40.214844 19.144531 41.25 18.675781 41.617188 17.753906 L 46.121094 6.25 C 46.46875 5.328125 46.015625 4.289062 45.097656 3.925781 C 44.160156 3.558594 43.121094 4.011719 42.757812 4.949219 Z M 6.136719 26 C 5.769531 26.9375 4.730469 27.390625 3.8125 27.023438 C 2.875 26.65625 2.421875 25.621094 2.789062 24.699219 L 10.667969 4.511719 C 11.238281 3.078125 12.335938 1.996094 13.648438 1.410156 C 14.964844 0.839844 16.5 0.753906 17.933594 1.324219 L 17.960938 1.324219 C 19.394531 1.894531 20.476562 2.988281 21.046875 4.289062 C 21.617188 5.605469 21.707031 7.125 21.148438 8.558594 L 21.136719 8.589844 L 15.960938 21.730469 L 15.945312 21.746094 L 15.929688 21.804688 C 15.753906 22.289062 15.800781 22.8125 15.988281 23.265625 C 16.195312 23.703125 16.542969 24.085938 17.027344 24.289062 C 17.085938 24.320312 17.144531 24.347656 17.203125 24.363281 C 17.683594 24.523438 18.195312 24.480469 18.648438 24.289062 C 19.089844 24.101562 19.46875 23.75 19.671875 23.28125 C 19.703125 23.207031 19.730469 23.121094 19.761719 23.046875 L 25.902344 7.289062 L 26.0625 6.878906 C 26.0625 6.847656 26.078125 6.820312 26.089844 6.789062 C 27.363281 3.488281 29.042969 -0.710938 34.25 1.308594 L 34.261719 1.308594 C 34.292969 1.324219 34.320312 1.335938 34.367188 1.351562 C 35.753906 1.921875 36.808594 3.003906 37.363281 4.289062 C 37.949219 5.605469 38.019531 7.125 37.464844 8.574219 L 37.480469 8.574219 L 37.464844 8.574219 C 37.464844 8.601562 37.449219 8.632812 37.433594 8.660156 L 33.882812 17.753906 C 33.515625 18.675781 32.464844 19.144531 31.542969 18.777344 C 30.625 18.414062 30.15625 17.375 30.519531 16.4375 L 34.085938 7.347656 L 34.101562 7.289062 L 34.101562 7.273438 C 34.308594 6.761719 34.277344 6.21875 34.074219 5.738281 C 33.867188 5.285156 33.503906 4.90625 33.003906 4.699219 L 32.976562 4.683594 L 32.960938 4.671875 C 31.078125 3.941406 30.15625 6.25 29.4375 8.089844 C 29.4375 8.121094 29.425781 8.148438 29.410156 8.179688 L 29.261719 8.589844 L 23.066406 24.480469 C 22.507812 25.925781 21.414062 27.007812 20.097656 27.59375 C 18.808594 28.148438 17.320312 28.238281 15.902344 27.726562 C 15.871094 27.710938 15.828125 27.695312 15.800781 27.683594 L 15.785156 27.683594 C 14.351562 27.113281 13.269531 26.015625 12.699219 24.714844 C 12.128906 23.441406 12.042969 21.949219 12.554688 20.546875 C 12.566406 20.503906 12.582031 20.472656 12.597656 20.429688 L 12.597656 20.414062 L 17.789062 7.273438 C 17.992188 6.761719 17.949219 6.21875 17.742188 5.738281 C 17.539062 5.269531 17.160156 4.875 16.648438 4.683594 L 16.632812 4.671875 C 16.121094 4.480469 15.578125 4.511719 15.097656 4.714844 C 14.628906 4.917969 14.234375 5.3125 14.03125 5.824219 L 6.136719 26 " fill-opacity="1" fill-rule="nonzero"/></g></svg>