<svg xmlns="http://www.w3.org/2000/svg" xmlns:xlink="http://www.w3.org/1999/xlink" width="500" zoomAndPan="magnify" viewBox="0 0 375 374.999991" height="500" preserveAspectRatio="xMidYMid meet" version="1.0"><defs><filter x="0%" y="0%" width="100%" height="100%" id="6d56b4fe4f"><feColorMatrix values="0 0 0 0 1 0 0 0 0 1 0 0 0 0 1 0 0 0 1 0" color-interpolation-filters="sRGB"/></filter><clipPath id="c19ede36cd"><path d="M 20.453125 0 L 354.203125 0 L 354.203125 375 L 20.453125 375 Z M 20.453125 0 " clip-rule="nonzero"/></clipPath><mask id="8009ef4842"><g filter="url(#6d56b4fe4f)"><rect x="-37.5" width="450" fill="#000000" y="-37.499999" height="449.999989" fill-opacity="0.8"/></g></mask><clipPath id="f022cb1670"><path d="M 0.679688 0.0390625 L 311.960938 0.0390625 L 311.960938 195.398438 L 0.679688 195.398438 Z M 0.679688 0.0390625 " clip-rule="nonzero"/></clipPath><clipPath id="5ff55fd56c"><rect x="0" width="312" y="0" height="196"/></clipPath></defs><path fill="#5db9d2" d="M 187.5 4.070312 L 24.808594 85.414062 L 187.5 166.757812 L 350.1875 85.414062 Z M 187.5 4.070312 " fill-opacity="1" fill-rule="nonzero"/><path fill="#56aeff" d="M 187.5 166.757812 L 187.5 370.121094 L 350.1875 288.773438 L 350.1875 85.414062 Z M 187.5 166.757812 " fill-opacity="1" fill-rule="nonzero"/><path fill="#0093b9" d="M 187.5 166.757812 L 187.5 370.121094 L 24.808594 288.773438 L 24.808594 85.414062 Z M 187.5 166.757812 " fill-opacity="1" fill-rule="nonzero"/><g clip-path="url(#c19ede36cd)"><path stroke-linecap="butt" transform="matrix(8.13449, 0, 0, 8.13449, -56.535241, -15.14642)" fill="none" stroke-linejoin="miter" d="M 30.000066 2.374862 L 9.999869 12.375201 L 9.999869 37.374847 L 30.000066 47.375186 L 49.999783 37.374847 L 49.999783 12.375201 Z M 30.000066 2.374862 " stroke="#4d4d4d" stroke-width="1" stroke-opacity="1" stroke-miterlimit="4"/></g><g mask="url(#8009ef4842)"><g transform="matrix(1, 0, 0, 1, 31, 101)"><g clip-path="url(#5ff55fd56c)"><g clip-path="url(#f022cb1670)"><path fill="#ffffff" d="M 254.800781 112.101562 C 252.191406 118.777344 255.527344 126.183594 262.101562 128.792969 C 268.777344 131.402344 276.183594 128.0625 278.789062 121.492188 L 310.921875 39.394531 C 313.425781 32.820312 310.191406 25.414062 303.617188 22.808594 C 296.945312 20.199219 289.535156 23.433594 286.929688 30.109375 Z M 25.617188 180.324219 C 23.011719 187 15.605469 190.234375 9.03125 187.625 C 2.359375 185.015625 -0.875 177.609375 1.730469 171.039062 L 57.957031 26.980469 C 62.023438 16.757812 69.847656 9.039062 79.238281 4.867188 C 88.625 0.796875 99.578125 0.171875 109.800781 4.238281 L 110.011719 4.238281 C 120.234375 8.308594 127.953125 16.128906 132.019531 25.414062 C 136.089844 34.804688 136.714844 45.652344 132.75 55.875 L 132.644531 56.085938 L 95.71875 149.863281 L 95.613281 149.964844 L 95.511719 150.386719 C 94.257812 153.828125 94.570312 157.582031 95.929688 160.816406 C 97.386719 163.945312 99.890625 166.65625 103.335938 168.121094 C 103.75 168.328125 104.167969 168.535156 104.585938 168.640625 C 108.027344 169.785156 111.679688 169.472656 114.914062 168.121094 C 118.042969 166.765625 120.753906 164.257812 122.214844 160.921875 C 122.421875 160.398438 122.632812 159.773438 122.839844 159.25 L 166.652344 46.800781 L 167.800781 43.878906 C 167.800781 43.671875 167.90625 43.460938 168.011719 43.253906 C 177.085938 19.679688 189.082031 -10.261719 226.21875 4.136719 L 226.320312 4.136719 C 226.53125 4.238281 226.738281 4.34375 227.050781 4.449219 C 236.964844 8.519531 244.472656 16.238281 248.4375 25.414062 C 252.609375 34.804688 253.132812 45.652344 249.167969 55.980469 L 249.269531 55.980469 L 249.167969 55.980469 C 249.167969 56.1875 249.0625 56.398438 248.957031 56.605469 L 223.609375 121.492188 C 221 128.0625 213.492188 131.402344 206.917969 128.792969 C 200.347656 126.183594 197.011719 118.777344 199.617188 112.101562 L 225.070312 47.214844 L 225.175781 46.800781 L 225.175781 46.695312 C 226.632812 43.046875 226.425781 39.183594 224.964844 35.742188 C 223.503906 32.507812 220.898438 29.796875 217.351562 28.339844 L 217.144531 28.230469 L 217.035156 28.128906 C 203.582031 22.914062 197.011719 39.394531 191.898438 52.535156 C 191.898438 52.746094 191.792969 52.953125 191.691406 53.160156 L 190.644531 56.085938 L 146.417969 169.472656 C 142.453125 179.800781 134.628906 187.519531 125.238281 191.695312 C 116.058594 195.660156 105.421875 196.285156 95.300781 192.632812 C 95.09375 192.53125 94.78125 192.425781 94.570312 192.320312 L 94.46875 192.320312 C 84.246094 188.253906 76.523438 180.429688 72.457031 171.144531 C 68.390625 162.066406 67.761719 151.429688 71.414062 141.414062 C 71.519531 141.101562 71.621094 140.890625 71.726562 140.578125 L 71.726562 140.476562 L 108.757812 46.695312 C 110.21875 43.046875 109.90625 39.183594 108.445312 35.742188 C 106.984375 32.40625 104.273438 29.589844 100.621094 28.230469 L 100.519531 28.128906 C 96.867188 26.769531 93.007812 26.980469 89.566406 28.441406 C 86.226562 29.902344 83.410156 32.71875 81.949219 36.367188 L 25.617188 180.324219 " fill-opacity="1" fill-rule="nonzero"/></g></g></g></g></svg>